<?xml version="1.0" standalone="no"?>
<!DOCTYPE svg PUBLIC "-//W3C//DTD SVG 20010904//EN"
 "http://www.w3.org/TR/2001/REC-SVG-20010904/DTD/svg10.dtd">
<svg version="1.0" xmlns="http://www.w3.org/2000/svg"
 width="512.000000pt" height="512.000000pt" viewBox="0 0 512.000000 512.000000"
 preserveAspectRatio="xMidYMid meet">
<metadata>
Created by potrace 1.14, written by Peter Selinger 2001-2017
</metadata>
<g transform="translate(0.000000,512.000000) scale(0.100000,-0.100000)"
fill="#000000" stroke="none">
<path d="M1009 4633 c-23 -9 -43 -41 -102 -160 l-75 -148 -312 -1 -313 0 -24
-28 -23 -27 2 -1742 3 -1742 31 -65 c50 -104 129 -176 238 -218 37 -14 243
-16 2101 -17 2228 -2 2129 -4 2223 51 66 39 127 106 164 181 l33 68 3 1579 c3
1727 6 1613 -55 1633 -15 5 -153 8 -305 8 l-278 -1 0 132 c0 146 -7 167 -65
182 -16 4 -448 7 -958 7 l-928 -1 -75 148 c-46 91 -83 152 -97 160 -31 17
-1147 18 -1188 1z m1170 -288 c39 -77 78 -149 86 -160 16 -20 29 -20 948 -22
513 0 935 -1 940 -2 4 -1 7 -36 7 -79 l0 -78 -975 0 c-1113 0 -999 11 -1035
-98 l-20 -62 -778 1 c-427 0 -790 -3 -807 -7 -16 -4 -38 -17 -47 -29 -17 -20
-18 -110 -18 -1585 0 -948 -4 -1564 -9 -1564 -26 0 -99 70 -123 119 l-28 54 3
1666 2 1665 290 0 c223 1 295 4 310 14 11 8 51 77 90 155 38 78 73 144 76 147
4 3 235 5 513 5 l505 0 70 -140z m2609 -504 c9 -1 12 -309 12 -1503 l0 -1503
-24 -50 c-25 -55 -70 -99 -126 -124 -31 -13 -235 -15 -1897 -16 -1299 -1
-1863 2 -1863 9 0 6 7 20 16 31 8 11 24 48 34 83 19 62 20 99 20 1328 0 695 3
1264 8 1265 4 0 261 2 572 3 463 1 569 4 586 15 15 10 40 70 88 215 37 111 71
212 77 226 l9 25 1238 -2 c680 0 1243 -1 1250 -2z m-2718 -167 c0 -5 -11 -41
-23 -80 l-24 -69 -564 -1 c-310 -1 -574 -2 -585 -3 -12 -1 -32 -10 -45 -20
l-24 -19 -5 -1334 -5 -1333 -25 -45 c-23 -40 -99 -110 -121 -110 -5 0 -9 596
-9 1513 l0 1512 715 0 c495 0 715 -3 715 -11z"/>
</g>
</svg>
